<svg width="12.000000" height="13.000000" viewBox="0 0 12 13" fill="none" xmlns="http://www.w3.org/2000/svg" xmlns:xlink="http://www.w3.org/1999/xlink">
	<desc>
			Created with Pixso.
	</desc>
	<defs/>
	<path id="Vector" d="M8.34 6.54C8.44 6.67 8.5 6.85 8.49 7.03C8.49 7.21 8.44 7.38 8.33 7.5C8.23 7.63 8.1 7.7 7.95 7.7C7.81 7.71 7.67 7.64 7.57 7.51L5.66 5.12C5.08 4.38 4.7 4.34 4.28 4.86C3.87 5.39 3.9 5.86 4.49 6.59L7.55 10.43C8.37 11.45 9.06 11.45 9.88 10.42C10.7 9.39 10.7 8.54 9.89 7.51L6.04 2.68C4.69 1 3.56 0.94 2.36 2.44C1.16 3.95 1.2 5.38 2.55 7.06L5.24 10.44C5.29 10.5 5.33 10.57 5.36 10.66C5.39 10.74 5.41 10.83 5.41 10.92C5.41 11.01 5.39 11.1 5.37 11.19C5.34 11.27 5.3 11.35 5.25 11.41C5.2 11.48 5.13 11.53 5.07 11.56C5 11.6 4.93 11.61 4.86 11.61C4.78 11.61 4.71 11.59 4.65 11.56C4.58 11.52 4.52 11.47 4.47 11.4L1.78 8.03C0.02 5.83 -0.06 3.53 1.58 1.47C3.23 -0.58 5.05 -0.49 6.81 1.72L10.66 6.55C11.9 8.1 11.9 9.83 10.65 11.39C9.41 12.94 8.03 12.95 6.78 11.41L3.72 7.56C2.73 6.33 2.63 5 3.51 3.89C4.39 2.79 5.45 2.92 6.43 4.15L8.34 6.54L8.34 6.54Z" fill="#839B9F" fill-opacity="1.000000" fill-rule="evenodd"/>
</svg>
